<?xml version="1.0" encoding="UTF-8"?>
<!DOCTYPE svg PUBLIC "-//W3C//DTD SVG 1.1//EN" "http://www.w3.org/Graphics/SVG/1.1/DTD/svg11.dtd">
<!-- Creator: CorelDRAW 2019 (64-Bit) -->
<svg xmlns="http://www.w3.org/2000/svg" xml:space="preserve" width="70px" height="70px" version="1.1" style="shape-rendering:geometricPrecision; text-rendering:geometricPrecision; image-rendering:optimizeQuality; fill-rule:evenodd; clip-rule:evenodd"
viewBox="0 0 70 70"
 xmlns:xlink="http://www.w3.org/1999/xlink"
 xmlns:xodm="http://www.corel.com/coreldraw/odm/2003">
 <defs>
  <style type="text/css">
   <![CDATA[
    .fil0 {fill:#6666FF}
    .fil1 {fill:#FFB300}
   ]]>
  </style>
 </defs>
 <g id="Capa_x0020_1">
  <metadata id="CorelCorpID_0Corel-Layer"/>
  <g id="_52644832">
   <g>
    <path class="fil0" d="M16.454 32.323c0,-9.909 -1.105,-7.392 6.955,-12.046l2.318 -1.338 2.318 -1.338c4.092,-2.363 5.611,-3.53 6.955,-3.601l0 -9c-1.92,0.101 -4.091,1.769 -9.935,5.144l-3.312 1.912 -3.312 1.912c-11.515,6.648 -9.935,3.052 -9.935,17.208l0 3.824 0 3.824c0,6.957 -0.636,9.407 0.513,11.176l7.794 -4.5c-0.804,-1.238 -0.359,-2.953 -0.359,-7.823l0 -2.677 0 -2.677z"/>
    <path class="fil0" d="M53.545 37.677c0,9.909 1.106,7.392 -6.954,12.046l-2.318 1.338 -2.319 1.338c-4.091,2.363 -5.61,3.53 -6.954,3.601l0 9c1.919,-0.101 4.09,-1.769 9.935,-5.144l3.312 -1.912 3.312 -1.912c11.514,-6.648 9.935,-3.052 9.935,-17.208l0 -3.824 0 -3.824c0,-6.957 0.636,-9.407 -0.513,-11.176l-7.795 4.5c0.805,1.238 0.359,2.953 0.359,7.823l0 2.677 0 2.677z"/>
   </g>
   <path class="fil1" d="M43.279 45.516c5.757,-3.324 4.968,-1.526 4.968,-8.604l0 -1.912 0 -1.912c0,-6.648 1.162,-5.065 -4.968,-8.604l-1.656 -0.956 -1.656 -0.956c-5.757,-3.324 -3.805,-3.539 -9.935,0l-1.656 0.956 -1.655 0.956c-5.758,3.324 -4.968,1.526 -4.968,8.604l0 1.912 0 1.912c0,6.648 -1.162,5.065 4.968,8.604l1.655 0.956 1.656 0.956c5.758,3.324 3.806,3.539 9.935,0l1.656 -0.956 1.656 -0.956z"/>
  </g>
 </g>
</svg>
