<?xml version="1.0" encoding="UTF-8"?>
<!DOCTYPE svg PUBLIC "-//W3C//DTD SVG 1.1//EN" "http://www.w3.org/Graphics/SVG/1.1/DTD/svg11.dtd">
<!-- Creator: CorelDRAW 2019 (64-Bit) -->
<svg xmlns="http://www.w3.org/2000/svg" xml:space="preserve" width="360px" height="70px" version="1.1" style="shape-rendering:geometricPrecision; text-rendering:geometricPrecision; image-rendering:optimizeQuality; fill-rule:evenodd; clip-rule:evenodd"
viewBox="0 0 360 70"
 xmlns:xlink="http://www.w3.org/1999/xlink"
 xmlns:xodm="http://www.corel.com/coreldraw/odm/2003">
 <defs>
  <style type="text/css">
   <![CDATA[
    .fil2 {fill:#6666FF}
    .fil3 {fill:#FFB300}
    .fil1 {fill:#6666FF;fill-rule:nonzero}
    .fil0 {fill:#FFB300;fill-rule:nonzero}
   ]]>
  </style>
 </defs>
 <g id="Capa_x0020_1">
  <metadata id="CorelCorpID_0Corel-Layer"/>
  <g id="_1077937744">
   <g>
    <path class="fil0" d="M82.684 22.054l20.509 0c0.787,0 1.364,0.088 1.734,0.265 0.369,0.176 0.614,0.453 0.737,0.83 0.123,0.377 0.185,0.871 0.185,1.483 0,0.613 -0.062,1.101 -0.185,1.466 -0.123,0.366 -0.332,0.618 -0.627,0.76 -0.443,0.212 -1.07,0.318 -1.881,0.318l-7.045 0 0 17.768c0,0.541 -0.019,0.942 -0.056,1.201 -0.037,0.259 -0.147,0.559 -0.332,0.9 -0.184,0.342 -0.51,0.583 -0.977,0.725 -0.467,0.141 -1.082,0.212 -1.845,0.212 -0.762,0 -1.37,-0.071 -1.826,-0.212 -0.455,-0.142 -0.774,-0.383 -0.958,-0.725 -0.185,-0.341 -0.296,-0.647 -0.333,-0.918 -0.036,-0.271 -0.055,-0.677 -0.055,-1.219l0 -17.732 -7.082 0c-0.787,0 -1.365,-0.088 -1.734,-0.265 -0.369,-0.177 -0.615,-0.453 -0.738,-0.83 -0.123,-0.377 -0.184,-0.871 -0.184,-1.484 0,-0.612 0.061,-1.101 0.184,-1.466 0.123,-0.365 0.332,-0.618 0.627,-0.759 0.443,-0.212 1.07,-0.318 1.882,-0.318zm31.723 19.675l11.361 0c0.565,0 0.99,0.018 1.272,0.053 0.283,0.036 0.609,0.147 0.978,0.336 0.664,0.33 0.996,1.248 0.996,2.755 0,1.649 -0.455,2.614 -1.365,2.897 -0.418,0.141 -1.057,0.212 -1.918,0.212l-14.607 0c-1.722,0 -2.73,-0.448 -3.025,-1.343 -0.148,-0.377 -0.221,-0.977 -0.221,-1.801l0 -19.64c0,-1.201 0.233,-2.02 0.7,-2.455 0.468,-0.436 1.353,-0.654 2.656,-0.654l14.534 0c0.565,0 0.99,0.018 1.272,0.053 0.283,0.036 0.609,0.147 0.978,0.336 0.664,0.33 0.996,1.248 0.996,2.755 0,1.649 -0.455,2.614 -1.365,2.897 -0.418,0.141 -1.057,0.212 -1.918,0.212l-11.324 0 0 3.567 7.303 0c0.566,0 0.99,0.018 1.273,0.053 0.282,0.036 0.609,0.147 0.977,0.336 0.664,0.33 0.996,1.248 0.996,2.755 0,1.649 -0.467,2.614 -1.401,2.897 -0.418,0.141 -1.058,0.212 -1.919,0.212l-7.229 0 0 3.567zm33.899 -0.53l0.664 -0.459c0.836,-0.471 1.426,-0.706 1.77,-0.706 0.763,0 1.586,0.659 2.472,1.978 0.541,0.824 0.811,1.484 0.811,1.978 0,0.494 -0.166,0.907 -0.498,1.236 -0.332,0.33 -0.719,0.624 -1.162,0.883 -0.442,0.259 -0.867,0.507 -1.272,0.742 -0.406,0.236 -1.236,0.542 -2.49,0.919 -1.254,0.376 -2.466,0.565 -3.634,0.565 -1.168,0 -2.348,-0.147 -3.541,-0.442 -1.192,-0.294 -2.422,-0.789 -3.688,-1.483 -1.267,-0.695 -2.404,-1.543 -3.413,-2.544 -1.008,-1 -1.838,-2.284 -2.49,-3.85 -0.651,-1.566 -0.977,-3.268 -0.977,-5.104 0,-1.837 0.32,-3.503 0.959,-4.998 0.639,-1.496 1.457,-2.732 2.453,-3.71 0.996,-0.977 2.133,-1.795 3.412,-2.455 2.41,-1.271 4.833,-1.907 7.267,-1.907 1.156,0 2.33,0.171 3.522,0.512 1.193,0.342 2.097,0.689 2.712,1.042l0.885 0.495c0.443,0.259 0.787,0.471 1.033,0.636 0.64,0.494 0.959,1.053 0.959,1.677 0,0.624 -0.258,1.278 -0.775,1.961 -0.959,1.272 -1.819,1.907 -2.582,1.907 -0.442,0 -1.069,-0.259 -1.881,-0.777 -1.033,-0.8 -2.41,-1.201 -4.131,-1.201 -1.599,0 -3.172,0.53 -4.722,1.59 -0.737,0.518 -1.352,1.248 -1.844,2.19 -0.492,0.942 -0.738,2.008 -0.738,3.197 0,1.189 0.246,2.255 0.738,3.196 0.492,0.943 1.119,1.684 1.881,2.226 1.5,1.036 3.062,1.554 4.685,1.554 0.762,0 1.481,-0.094 2.158,-0.282 0.676,-0.189 1.161,-0.377 1.457,-0.566zm24.862 -18.156c0.196,-0.353 0.528,-0.6 0.996,-0.742 0.467,-0.141 1.057,-0.212 1.77,-0.212 0.713,0 1.279,0.059 1.697,0.177 0.418,0.118 0.738,0.259 0.959,0.424 0.221,0.164 0.393,0.4 0.517,0.706 0.122,0.401 0.184,1.013 0.184,1.837l0 19.605c0,0.541 -0.019,0.948 -0.056,1.218 -0.036,0.271 -0.153,0.583 -0.35,0.936 -0.344,0.636 -1.304,0.954 -2.877,0.954 -1.722,0 -2.73,-0.435 -3.025,-1.307 -0.147,-0.4 -0.221,-1.012 -0.221,-1.837l0 -7.17 -9.775 0 0 7.206c0,0.541 -0.019,0.948 -0.056,1.218 -0.036,0.271 -0.153,0.583 -0.35,0.936 -0.344,0.636 -1.303,0.954 -2.877,0.954 -1.722,0 -2.73,-0.435 -3.025,-1.307 -0.148,-0.4 -0.221,-1.012 -0.221,-1.837l0 -19.604c0,-0.542 0.018,-0.948 0.055,-1.219 0.037,-0.271 0.154,-0.583 0.351,-0.936 0.344,-0.636 1.303,-0.954 2.877,-0.954 1.721,0 2.742,0.436 3.061,1.307 0.123,0.401 0.185,1.013 0.185,1.837l0 7.206 9.775 0 0 -7.241c0,-0.542 0.018,-0.948 0.055,-1.219 0.037,-0.271 0.154,-0.583 0.351,-0.936zm26.54 0.124c0.234,-0.413 0.584,-0.689 1.051,-0.83 0.467,-0.142 1.051,-0.212 1.752,-0.212 0.701,0 1.266,0.059 1.697,0.176 0.43,0.118 0.75,0.259 0.959,0.424 0.209,0.165 0.363,0.412 0.461,0.742 0.148,0.377 0.221,0.977 0.221,1.801l0 19.605c0,0.565 -0.018,0.977 -0.055,1.236 -0.037,0.259 -0.154,0.566 -0.35,0.919 -0.344,0.636 -1.304,0.954 -2.878,0.954 -0.959,0 -1.622,-0.071 -1.991,-0.212 -0.369,-0.142 -0.677,-0.366 -0.923,-0.671 -5.533,-7.065 -9.172,-11.681 -10.918,-13.847l0 11.621c0,0.565 -0.018,0.977 -0.055,1.236 -0.037,0.259 -0.154,0.566 -0.351,0.919 -0.344,0.636 -1.303,0.954 -2.877,0.954 -1.525,0 -2.459,-0.318 -2.803,-0.954 -0.197,-0.353 -0.314,-0.671 -0.351,-0.954 -0.037,-0.283 -0.055,-0.695 -0.055,-1.236l0 -19.711c0,-0.895 0.117,-1.548 0.35,-1.96 0.234,-0.413 0.584,-0.689 1.051,-0.83 0.468,-0.142 1.07,-0.212 1.808,-0.212 0.738,0 1.322,0.064 1.752,0.194 0.431,0.129 0.732,0.277 0.904,0.441 0.098,0.071 0.381,0.377 0.848,0.919 5.189,6.758 8.657,11.221 10.402,13.388l0 -11.94c0,-0.895 0.117,-1.548 0.351,-1.96zm9.092 2.031c0,-0.542 0.019,-0.948 0.056,-1.219 0.037,-0.271 0.153,-0.583 0.35,-0.936 0.344,-0.636 1.304,-0.954 2.877,-0.954 1.722,0 2.742,0.436 3.062,1.307 0.123,0.401 0.184,1.013 0.184,1.837l0 19.64c0,0.565 -0.018,0.977 -0.055,1.236 -0.037,0.259 -0.153,0.566 -0.35,0.919 -0.345,0.636 -1.304,0.954 -2.877,0.954 -1.722,0 -2.73,-0.448 -3.025,-1.343 -0.148,-0.377 -0.222,-0.977 -0.222,-1.801l0 -19.64zm26.374 16.001l0.664 -0.459c0.837,-0.471 1.427,-0.706 1.771,-0.706 0.763,0 1.586,0.659 2.472,1.978 0.54,0.824 0.811,1.484 0.811,1.978 0,0.494 -0.166,0.907 -0.498,1.236 -0.332,0.33 -0.719,0.624 -1.162,0.883 -0.442,0.259 -0.867,0.507 -1.272,0.742 -0.406,0.236 -1.236,0.542 -2.49,0.919 -1.254,0.376 -2.466,0.565 -3.634,0.565 -1.168,0 -2.348,-0.147 -3.541,-0.442 -1.193,-0.294 -2.422,-0.789 -3.689,-1.483 -1.266,-0.695 -2.403,-1.543 -3.412,-2.544 -1.008,-1 -1.838,-2.284 -2.489,-3.85 -0.652,-1.566 -0.978,-3.268 -0.978,-5.104 0,-1.837 0.32,-3.503 0.959,-4.998 0.639,-1.496 1.457,-2.732 2.453,-3.71 0.996,-0.977 2.133,-1.795 3.412,-2.455 2.41,-1.271 4.832,-1.907 7.267,-1.907 1.156,0 2.33,0.171 3.523,0.512 1.192,0.342 2.096,0.689 2.711,1.042l0.885 0.495c0.443,0.259 0.787,0.471 1.033,0.636 0.639,0.494 0.959,1.053 0.959,1.677 0,0.624 -0.258,1.278 -0.775,1.961 -0.959,1.272 -1.82,1.907 -2.582,1.907 -0.442,0 -1.069,-0.259 -1.881,-0.777 -1.033,-0.8 -2.41,-1.201 -4.131,-1.201 -1.599,0 -3.172,0.53 -4.722,1.59 -0.737,0.518 -1.352,1.248 -1.844,2.19 -0.492,0.942 -0.738,2.008 -0.738,3.197 0,1.189 0.246,2.255 0.738,3.196 0.492,0.943 1.119,1.684 1.881,2.226 1.5,1.036 3.062,1.554 4.685,1.554 0.762,0 1.481,-0.094 2.158,-0.282 0.676,-0.189 1.162,-0.377 1.456,-0.566zm23.018 -17.273l9.96 19.711c0.418,0.801 0.627,1.401 0.627,1.801 0,0.848 -0.714,1.613 -2.14,2.296 -0.836,0.401 -1.494,0.601 -1.973,0.601 -0.48,0 -0.873,-0.106 -1.181,-0.318 -0.307,-0.212 -0.528,-0.436 -0.663,-0.671 -0.136,-0.236 -0.326,-0.589 -0.572,-1.06l-1.919 -3.815 -10.217 0 -1.918 3.815c-0.246,0.471 -0.437,0.813 -0.572,1.024 -0.135,0.212 -0.357,0.43 -0.664,0.654 -0.308,0.224 -0.701,0.335 -1.18,0.335 -0.48,0 -1.138,-0.2 -1.974,-0.6 -1.426,-0.659 -2.139,-1.413 -2.139,-2.261 0,-0.4 0.209,-1 0.627,-1.801l9.959 -19.746c0.271,-0.542 0.683,-0.978 1.236,-1.307 0.553,-0.33 1.138,-0.495 1.752,-0.495 1.328,0 2.312,0.612 2.951,1.837zm-2.988 8.478l-2.434 4.839 4.906 0 -2.472 -4.839zm22.132 10.35l10.034 0c0.811,0 1.401,0.088 1.77,0.265 0.369,0.176 0.615,0.453 0.738,0.83 0.123,0.376 0.184,0.877 0.184,1.501 0,0.624 -0.061,1.124 -0.184,1.501 -0.123,0.377 -0.332,0.636 -0.627,0.777 -0.467,0.236 -1.107,0.354 -1.918,0.354l-13.28 0c-1.721,0 -2.729,-0.448 -3.024,-1.343 -0.148,-0.377 -0.222,-0.977 -0.222,-1.801l0 -19.64c0,-0.542 0.019,-0.948 0.056,-1.219 0.037,-0.271 0.154,-0.583 0.35,-0.936 0.344,-0.636 1.304,-0.954 2.877,-0.954 1.722,0 2.742,0.436 3.062,1.307 0.123,0.401 0.184,1.013 0.184,1.837l0 17.521z"/>
    <path class="fil1" d="M318.503 23.043c0.196,-0.353 0.528,-0.6 0.995,-0.742 0.468,-0.141 1.058,-0.212 1.771,-0.212 0.713,0 1.278,0.059 1.697,0.177 0.418,0.118 0.738,0.259 0.959,0.424 0.221,0.164 0.393,0.4 0.516,0.706 0.123,0.401 0.185,1.013 0.185,1.837l0 19.605c0,0.541 -0.019,0.948 -0.056,1.218 -0.037,0.271 -0.154,0.583 -0.35,0.936 -0.344,0.636 -1.303,0.954 -2.877,0.954 -1.722,0 -2.73,-0.435 -3.025,-1.307 -0.148,-0.4 -0.221,-1.012 -0.221,-1.837l0 -7.17 -9.775 0 0 7.206c0,0.541 -0.019,0.948 -0.056,1.218 -0.037,0.271 -0.153,0.583 -0.35,0.936 -0.345,0.636 -1.303,0.954 -2.877,0.954 -1.722,0 -2.73,-0.435 -3.025,-1.307 -0.147,-0.4 -0.221,-1.012 -0.221,-1.837l0 -19.604c0,-0.542 0.018,-0.948 0.055,-1.219 0.037,-0.271 0.154,-0.583 0.35,-0.936 0.344,-0.636 1.304,-0.954 2.877,-0.954 1.722,0 2.742,0.436 3.062,1.307 0.123,0.401 0.185,1.013 0.185,1.837l0 7.206 9.775 0 0 -7.241c0,-0.542 0.018,-0.948 0.055,-1.219 0.037,-0.271 0.154,-0.583 0.351,-0.936zm9.479 21.3c-0.639,-0.753 -0.959,-1.431 -0.959,-2.031 0,-0.6 0.529,-1.395 1.586,-2.384 0.615,-0.566 1.267,-0.848 1.956,-0.848 0.688,0 1.647,0.588 2.877,1.766 0.344,0.4 0.836,0.783 1.475,1.148 0.64,0.365 1.23,0.548 1.77,0.548 2.288,0 3.431,-0.895 3.431,-2.685 0,-0.542 -0.313,-0.995 -0.94,-1.36 -0.628,-0.365 -1.408,-0.63 -2.343,-0.795 -0.934,-0.164 -1.942,-0.429 -3.025,-0.794 -1.082,-0.366 -2.09,-0.795 -3.024,-1.29 -0.935,-0.494 -1.715,-1.278 -2.342,-2.349 -0.628,-1.071 -0.941,-2.361 -0.941,-3.868 0,-2.072 0.805,-3.879 2.416,-5.422 1.611,-1.543 3.805,-2.314 6.584,-2.314 1.476,0 2.822,0.183 4.039,0.548 1.218,0.365 2.06,0.736 2.527,1.112l0.922 0.672c0.763,0.683 1.144,1.259 1.144,1.731 0,0.471 -0.295,1.118 -0.885,1.942 -0.836,1.178 -1.697,1.767 -2.583,1.767 -0.516,0 -1.155,-0.236 -1.918,-0.707 -0.073,-0.047 -0.215,-0.165 -0.424,-0.353 -0.209,-0.188 -0.4,-0.342 -0.572,-0.459 -0.516,-0.307 -1.174,-0.46 -1.973,-0.46 -0.799,0 -1.463,0.183 -1.992,0.548 -0.529,0.365 -0.793,0.871 -0.793,1.519 0,0.647 0.314,1.172 0.941,1.572 0.627,0.4 1.408,0.671 2.342,0.812 0.934,0.141 1.955,0.36 3.062,0.654 1.106,0.294 2.127,0.653 3.061,1.077 0.935,0.424 1.716,1.16 2.342,2.208 0.628,1.048 0.941,2.337 0.941,3.868 0,1.53 -0.319,2.879 -0.959,4.044 -0.639,1.166 -1.475,2.067 -2.508,2.703 -1.992,1.248 -4.119,1.872 -6.382,1.872 -1.156,0 -2.25,-0.136 -3.283,-0.406 -1.032,-0.271 -1.869,-0.607 -2.508,-1.007 -1.303,-0.754 -2.213,-1.484 -2.73,-2.19l-0.332 -0.389z"/>
   </g>
   <g>
    <g>
     <path class="fil2" d="M21.44 32.323c0,-9.909 -1.106,-7.392 6.955,-12.046l2.318 -1.338 2.318 -1.338c4.091,-2.363 5.611,-3.53 6.955,-3.601l0 -9c-1.92,0.101 -4.091,1.769 -9.936,5.144l-3.311 1.912 -3.312 1.912c-11.515,6.648 -9.935,3.052 -9.935,17.208l0 3.824 0 3.824c0,6.957 -0.637,9.407 0.513,11.176l7.794 -4.5c-0.804,-1.238 -0.359,-2.953 -0.359,-7.823l0 -2.677 0 -2.677z"/>
     <path class="fil2" d="M58.531 37.677c0,9.909 1.106,7.392 -6.954,12.046l-2.319 1.338 -2.318 1.338c-4.091,2.363 -5.611,3.53 -6.954,3.601l0 9c1.919,-0.101 4.09,-1.769 9.934,-5.143l3.312 -1.913 3.312 -1.912c11.515,-6.648 9.935,-3.052 9.935,-17.208l0 -3.824 0 -3.824c0,-6.957 0.636,-9.407 -0.513,-11.176l-7.794 4.5c0.805,1.238 0.359,2.953 0.359,7.823l0 2.677 0 2.677z"/>
    </g>
    <path class="fil3" d="M48.265 45.516c5.757,-3.324 4.967,-1.526 4.967,-8.604l0 -1.912 0 -1.912c0,-6.648 1.162,-5.065 -4.967,-8.604l-1.656 -0.956 -1.656 -0.956c-5.757,-3.324 -3.806,-3.539 -9.935,0l-1.656 0.956 -1.656 0.956c-5.757,3.324 -4.967,1.526 -4.967,8.604l0 1.912 0 1.912c0,6.648 -1.163,5.065 4.967,8.604l1.656 0.956 1.656 0.956c5.758,3.324 3.805,3.539 9.935,0l1.656 -0.956 1.656 -0.956z"/>
   </g>
  </g>
 </g>
</svg>
